<svg version="1.1" id="Layer_1" xmlns="http://www.w3.org/2000/svg" xmlns:xlink="http://www.w3.org/1999/xlink" x="0px" y="0px"
	 width="100%" viewBox="0 0 489 485" enable-background="new 0 0 489 485" xml:space="preserve">
<path fill="#FFFFFF" opacity="1.000000" stroke="none" 
	d="
M1.000000,183.000000 
	C1.000000,122.015511 1.000000,61.531021 1.000000,1.023265 
	C163.942703,1.023265 326.885406,1.023265 489.914062,1.023265 
	C489.914062,162.567886 489.914062,324.135834 489.914062,485.851868 
	C327.000092,485.851868 164.000061,485.851868 1.000000,485.851868 
	C1.000000,385.114471 1.000000,284.307251 1.000000,183.000000 
M290.855042,469.905029 
	C291.240509,468.451111 291.949219,466.999634 291.960388,465.542816 
	C292.050812,453.744019 292.018372,441.944214 292.008362,430.144714 
	C291.971008,386.106232 291.927917,342.067780 292.235046,297.436432 
	C310.440796,271.076141 328.614075,244.693298 346.868378,218.366638 
	C354.126770,207.898514 361.564667,197.554855 368.958313,187.619827 
	C368.958313,187.619827 369.139282,188.050125 369.013672,188.971405 
	C369.013672,283.214172 369.013672,377.456940 369.013672,471.830658 
	C401.079956,471.830658 432.543152,471.830658 464.869232,471.929443 
	C465.247925,470.149872 465.957581,468.370422 465.958191,466.590698 
	C466.009094,318.546844 466.004944,170.502975 466.004852,22.459099 
	C466.004852,20.705811 466.004883,18.952520 466.004883,16.998888 
	C456.658630,16.998888 448.012878,16.979282 439.367249,17.002661 
	C415.893158,17.066135 392.419098,17.147821 368.281189,17.227362 
	C367.319031,18.334667 366.239594,19.361031 365.411682,20.560946 
	C329.282684,72.922142 293.178192,125.300285 257.063812,177.671570 
	C251.911545,185.143097 246.724045,192.590302 241.269135,200.457977 
	C240.028870,198.825668 239.203720,197.824951 238.469711,196.761353 
	C204.983047,148.238724 171.520874,99.699196 138.011993,51.191925 
	C130.545929,40.384087 122.918884,29.687437 114.972481,18.181868 
	C113.299698,17.785225 111.627739,17.046728 109.954018,17.042738 
	C80.467133,16.972467 50.980026,16.987951 21.492981,17.003460 
	C20.062504,17.004211 18.632118,17.175663 17.314692,17.260361 
	C17.314692,169.022324 17.314692,320.367218 17.314692,471.829651 
	C49.089211,471.829651 80.547478,471.829651 112.868423,471.928833 
	C113.247147,470.150726 113.955872,468.372864 113.957138,466.594482 
	C114.012032,389.375153 113.998100,312.155823 114.009216,234.936462 
	C114.011467,219.294144 114.079659,203.651810 114.718407,188.292511 
	C129.285538,209.374069 143.874161,230.440796 158.413162,251.541718 
	C170.684021,269.350769 182.897308,287.199493 195.017426,305.957336 
	C195.017426,360.522705 195.017426,415.088074 195.017426,469.841766 
	C227.097977,469.841766 258.548737,469.841766 290.855042,469.905029 
z"/>
<path fill="#8056D2" opacity="1.000000" stroke="none" 
	d="
M195.136078,305.030670 
	C182.897308,287.199493 170.684021,269.350769 158.413162,251.541718 
	C143.874161,230.440796 129.285538,209.374069 114.334137,188.211334 
	C113.949875,188.130157 113.743248,188.120224 113.822952,187.644745 
	C113.928001,131.113205 113.953339,75.057175 114.324715,18.967953 
	C114.902489,18.936377 115.134224,18.937983 115.365967,18.939590 
	C122.918884,29.687437 130.545929,40.384087 138.011993,51.191925 
	C171.520874,99.699196 204.983047,148.238724 238.469711,196.761353 
	C239.203720,197.824951 240.028870,198.825668 241.269135,200.457977 
	C246.724045,192.590302 251.911545,185.143097 257.063812,177.671570 
	C293.178192,125.300285 329.282684,72.922142 365.411682,20.560946 
	C366.239594,19.361031 367.319031,18.334667 368.640045,17.423832 
	C368.998901,17.620300 369.044220,18.019825 369.019104,18.486635 
	C368.969574,75.020477 368.945221,131.087509 368.920837,187.154541 
	C361.564667,197.554855 354.126770,207.898514 346.868378,218.366638 
	C328.614075,244.693298 310.440796,271.076141 291.781860,298.037354 
	C291.215454,300.452118 291.003937,302.265930 291.003296,304.079773 
	C290.984772,357.158020 290.997528,410.236267 290.944672,463.314484 
	C290.942780,465.206940 290.325317,467.098785 289.526398,468.992493 
	C260.079620,468.995209 231.099625,468.843170 202.124176,469.136841 
	C196.825104,469.190521 195.878372,467.530365 195.894760,462.665710 
	C196.065170,412.037323 196.008591,361.408112 195.962341,310.779175 
	C195.960587,308.862762 195.423630,306.946838 195.136078,305.030670 
z"/>
<path fill="#634092" opacity="1.000000" stroke="none" 
	d="
M368.939575,187.387177 
	C368.945221,131.087509 368.969574,75.020477 369.483154,18.480129 
	C399.296875,18.006168 428.621399,18.004030 457.945892,18.005968 
	C464.992371,18.006433 464.996765,18.012653 464.996765,25.275850 
	C464.996887,171.232071 465.001190,317.188293 464.953827,463.144531 
	C464.952972,465.762695 464.330963,468.380707 463.530273,470.999390 
	C434.410797,471.000031 405.759857,471.012238 377.108948,470.992126 
	C369.129700,470.986511 370.010101,471.734985 370.008850,463.652222 
	C369.994843,373.868256 370.005798,284.084259 369.964020,194.300308 
	C369.963043,192.216782 369.426178,190.133514 369.139282,188.050125 
	C369.139282,188.050125 368.958313,187.619827 368.939575,187.387177 
z"/>
<path fill="#604583" opacity="1.000000" stroke="none" 
	d="
M115.169220,18.560730 
	C115.134224,18.937983 114.902489,18.936377 113.858337,18.965611 
	C83.230522,18.997042 53.414661,19.076696 23.600199,18.908606 
	C19.376770,18.884792 17.892551,19.763180 17.896484,24.358551 
	C18.022348,171.437088 18.021572,318.515778 17.898952,465.594299 
	C17.895178,470.122375 19.255917,471.120636 23.552904,471.094421 
	C53.034157,470.914246 82.517036,470.999207 112.001015,471.206482 
	C112.002640,471.414215 112.005745,471.829651 112.005745,471.829651 
	C80.547478,471.829651 49.089211,471.829651 17.314692,471.829651 
	C17.314692,320.367218 17.314692,169.022324 17.314692,17.260361 
	C18.632118,17.175663 20.062504,17.004211 21.492981,17.003460 
	C50.980026,16.987951 80.467133,16.972467 109.954018,17.042738 
	C111.627739,17.046728 113.299698,17.785225 115.169220,18.560730 
z"/>
<path fill="#5D497A" opacity="1.000000" stroke="none" 
	d="
M463.998779,470.998779 
	C464.330963,468.380707 464.952972,465.762695 464.953827,463.144531 
	C465.001190,317.188293 464.996887,171.232071 464.996765,25.275850 
	C464.996765,18.012653 464.992371,18.006433 457.945892,18.005968 
	C428.621399,18.004030 399.296875,18.006168 369.508301,18.013317 
	C369.044220,18.019825 368.998901,17.620300 368.971985,17.421293 
	C392.419098,17.147821 415.893158,17.066135 439.367249,17.002661 
	C448.012878,16.979282 456.658630,16.998888 466.004883,16.998888 
	C466.004883,18.952520 466.004852,20.705811 466.004852,22.459099 
	C466.004944,170.502975 466.009094,318.546844 465.958191,466.590698 
	C465.957581,468.370422 465.247925,470.149872 464.435974,471.672089 
	C464.002686,471.414734 463.998779,470.998779 463.998779,470.998779 
z"/>
<path fill="#604583" opacity="1.000000" stroke="none" 
	d="
M463.530243,470.999390 
	C463.998779,470.998779 464.002686,471.414734 464.004517,471.622681 
	C432.543152,471.830658 401.079956,471.830658 369.013672,471.830658 
	C369.013672,377.456940 369.013672,283.214172 369.076477,188.510773 
	C369.426178,190.133514 369.963043,192.216782 369.964020,194.300308 
	C370.005798,284.084259 369.994843,373.868256 370.008850,463.652222 
	C370.010101,471.734985 369.129700,470.986511 377.108948,470.992126 
	C405.759857,471.012238 434.410797,471.000031 463.530243,470.999390 
z"/>
<path fill="#5C4979" opacity="1.000000" stroke="none" 
	d="
M112.437088,471.879242 
	C112.005745,471.829651 112.002640,471.414215 112.053497,470.791077 
	C112.401382,467.714539 112.956841,465.261230 112.958099,462.807678 
	C113.004128,373.178253 112.994011,283.548767 113.031296,193.919327 
	C113.032104,191.986191 113.495598,190.053253 113.743248,188.120224 
	C113.743248,188.120224 113.949875,188.130157 114.033661,188.069824 
	C114.079659,203.651810 114.011467,219.294144 114.009216,234.936462 
	C113.998100,312.155823 114.012032,389.375153 113.957138,466.594482 
	C113.955872,468.372864 113.247147,470.150726 112.437088,471.879242 
z"/>
<path fill="#7D5EBB" opacity="1.000000" stroke="none" 
	d="
M195.076752,305.494019 
	C195.423630,306.946838 195.960587,308.862762 195.962341,310.779175 
	C196.008591,361.408112 196.065170,412.037323 195.894760,462.665710 
	C195.878372,467.530365 196.825104,469.190521 202.124176,469.136841 
	C231.099625,468.843170 260.079620,468.995209 289.528137,469.205261 
	C289.998230,469.416473 289.999512,469.841766 289.999512,469.841766 
	C258.548737,469.841766 227.097977,469.841766 195.017426,469.841766 
	C195.017426,415.088074 195.017426,360.522705 195.076752,305.494019 
z"/>
<path fill="#7B60B1" opacity="1.000000" stroke="none" 
	d="
M290.427277,469.873413 
	C289.999512,469.841766 289.998230,469.416473 289.996490,469.203705 
	C290.325317,467.098785 290.942780,465.206940 290.944672,463.314484 
	C290.997528,410.236267 290.984772,357.158020 291.003296,304.079773 
	C291.003937,302.265930 291.215454,300.452118 291.607819,298.333801 
	C291.927917,342.067780 291.971008,386.106232 292.008362,430.144714 
	C292.018372,441.944214 292.050812,453.744019 291.960388,465.542816 
	C291.949219,466.999634 291.240509,468.451111 290.427277,469.873413 
z"/>
<path fill="#634092" opacity="1.000000" stroke="none" 
	d="
M113.822952,187.644745 
	C113.495598,190.053253 113.032104,191.986191 113.031296,193.919327 
	C112.994011,283.548767 113.004128,373.178253 112.958099,462.807678 
	C112.956841,465.261230 112.401382,467.714539 112.051872,470.583374 
	C82.517036,470.999207 53.034157,470.914246 23.552904,471.094421 
	C19.255917,471.120636 17.895178,470.122375 17.898952,465.594299 
	C18.021572,318.515778 18.022348,171.437088 17.896484,24.358551 
	C17.892551,19.763180 19.376770,18.884792 23.600199,18.908606 
	C53.414661,19.076696 83.230522,18.997042 113.512314,18.998795 
	C113.953339,75.057175 113.928001,131.113205 113.822952,187.644745 
z"/>
</svg>